<svg width="1680" height="2417" viewBox="0 0 1680 2417" fill="none" xmlns="http://www.w3.org/2000/svg">
<path d="M1069.43 435.838C1088.05 435.271 1106.33 432.443 1124.53 428.892C1130.77 427.67 1136.92 425.853 1143.21 425.009C1148.2 424.345 1152.72 422.744 1157.24 420.783C1162.27 418.599 1167.49 416.779 1172.42 414.392C1181.51 409.986 1190.88 405.955 1199.35 400.533C1210.02 393.697 1219.79 385.427 1230.19 378.119C1246.12 366.923 1256.27 351.334 1264.32 334.033C1273.58 314.111 1277.93 292.806 1281.39 271.259C1282.1 266.986 1282.93 262.638 1283.04 258.314C1283.37 243.224 1283.94 228.107 1283.45 212.99C1282.96 197.873 1281.49 182.834 1280.19 167.771C1278.89 152.713 1277 137.72 1275.85 122.658C1274.29 102.369 1273.06 82.0485 1271.95 61.736C1271.1 45.986 1268.34 30.5251 1265.27 15.111C1263.13 4.40787 1259.62 1.41177 1248.81 0.380523C1244.26 -0.0491638 1239.4 -0.330414 1235.05 0.763336C1226.32 2.88052 1217.78 5.62271 1209.45 8.98599C1196.37 14.3961 1183.59 20.5836 1170.73 26.5133C1155.22 33.6461 1140.19 41.7008 1125.42 50.2594C1119.17 53.8727 1112.81 57.3102 1106.7 61.1422C1099.61 65.5915 1093.01 70.9001 1085.7 74.9391C1065.81 85.9196 1048.42 100.287 1031.25 114.888C1014.35 129.256 1001.37 147.119 989.365 165.662C979.212 181.338 972.04 198.478 966.806 216.392C964.451 224.427 962.259 232.623 961.169 240.888C958.408 261.42 958.958 282.033 961.263 302.654C962.892 317.131 964.861 331.533 968.54 345.658C973.052 362.99 981.033 378.865 989.486 394.548C995.372 405.466 1002.82 415.045 1012.57 422.72C1015.97 425.388 1019.62 427.724 1023.2 430.248C1023.01 431.627 1022.98 432.806 1022.64 433.884C1018.53 447.888 1016.44 462.185 1016.9 476.838C1016.98 478.798 1016.83 480.783 1019.5 481.841C1022.85 476.205 1020.55 470.154 1021.77 464.603C1022.95 459.244 1023.16 453.67 1024.29 448.298C1025.46 442.65 1027.22 437.146 1028.78 431.4C1032.08 431.908 1035.2 432.439 1038.33 432.877C1048.67 434.252 1058.91 436.154 1069.43 435.838Z" fill="#195D5F"/>
<path d="M690.247 429.943C701.985 418.244 712.126 405.279 721.763 391.9C725.067 387.306 727.938 382.388 731.509 378.01C734.341 374.545 736.294 370.752 738.024 366.732C739.954 362.252 742.228 357.896 743.966 353.345C747.165 344.959 750.778 336.635 752.95 327.97C755.688 317.037 756.962 305.732 759.231 294.666C762.712 277.713 759.743 261.424 754.36 245.314C748.161 226.763 737.915 210.306 726.954 194.232C724.79 191.037 722.665 187.709 720.083 184.842C711.048 174.857 702.149 164.709 692.56 155.213C682.97 145.717 672.798 136.857 662.72 127.888C652.642 118.92 642.216 110.357 632.235 101.295C618.782 89.0916 605.524 76.6736 592.353 64.1775C582.142 54.49 570.864 46.1501 559.423 38.0291C551.47 32.3923 547.353 32.5916 539.7 38.5017C536.481 40.9939 533.157 43.7673 531.001 47.1267C526.63 53.8181 522.771 60.7869 519.427 68.0408C514.251 79.5095 509.743 91.3025 505.032 102.974C499.333 117.041 494.513 131.416 490.169 145.955C488.329 152.095 486.306 158.197 484.688 164.4C482.813 171.603 481.786 179.06 479.517 186.127C473.329 205.357 470.853 225.256 468.653 245.174C466.489 264.775 469.017 284.252 472.591 303.58C475.61 319.92 481.466 335.396 489.052 350.193C492.45 356.838 496.052 363.482 500.411 369.502C511.208 384.494 524.204 397.517 538.349 409.478C548.278 417.869 558.392 426.006 569.442 432.92C582.997 441.408 597.915 446.838 613.021 451.857C623.536 455.349 634.243 457.025 645.282 456.064C649.122 455.724 652.927 455.013 656.802 454.467C657.517 455.482 658.228 456.263 658.665 457.17C664.583 468.748 671.993 479.283 681.282 488.498C682.528 489.724 683.646 491.103 686.032 490.162C684.751 484.467 679.548 481.947 676.935 477.607C674.415 473.416 671.134 469.674 668.575 465.51C665.868 461.131 663.642 456.49 661.13 451.822C663.583 450.142 665.931 448.588 668.235 446.963C675.79 441.564 683.606 436.556 690.247 429.943Z" fill="#195D5F"/>
<mask id="path-3-inside-1" fill="white">
<path d="M390.685 646.15C394.743 632.865 397.122 619.275 398.974 605.572C399.607 600.865 399.794 596.091 400.704 591.447C401.427 587.763 401.384 584.181 401.083 580.525C400.747 576.443 400.712 572.322 400.204 568.263C399.275 560.787 398.673 553.197 396.876 545.92C394.611 536.736 391.114 527.853 388.45 518.756C384.368 504.814 375.802 493.9 365.525 484.06C353.696 472.732 339.708 464.545 325.341 456.923C322.497 455.4 319.63 453.763 316.607 452.65C306.044 448.787 295.521 444.752 284.739 441.47C273.962 438.189 263.005 435.607 252.071 432.908C241.142 430.209 230.114 427.947 219.216 425.142C204.536 421.365 189.911 417.357 175.321 413.252C164.009 410.072 152.443 408.31 140.841 406.775C132.778 405.713 129.825 407.474 126.513 414.861C125.118 417.974 123.759 421.334 123.489 424.67C122.892 431.345 122.786 438.029 123.165 444.72C123.849 455.259 125.153 465.775 126.259 476.279C127.579 488.947 129.661 501.502 132.161 513.986C133.216 519.263 134.118 524.584 135.357 529.818C136.798 535.896 138.962 541.83 140.064 547.963C143.044 564.65 149.017 580.384 155.204 596.017C161.29 611.408 170.782 624.861 180.989 637.795C189.614 648.732 199.986 657.912 211.368 665.916C216.47 669.506 221.728 673.021 227.294 675.779C241.111 682.662 255.782 687.224 270.876 690.548C281.474 692.877 292.103 694.947 302.943 695.74C316.247 696.72 329.353 694.896 342.435 692.693C351.544 691.158 360.083 688.201 367.825 683.158C370.525 681.404 373.044 679.381 375.681 677.455C376.607 677.927 377.435 678.228 378.111 678.728C387.001 684.998 396.587 689.904 407.032 693.099C408.431 693.517 409.794 694.099 411.181 692.466C408.005 688.748 403.189 688.916 399.564 686.724C396.068 684.603 392.189 683.115 388.669 681.029C384.966 678.841 381.509 676.275 377.829 673.795C378.978 671.588 380.095 669.513 381.153 667.408C384.599 660.439 388.388 653.662 390.685 646.15Z"/>
</mask>
<path d="M390.685 646.15L421.286 655.507L421.288 655.499L390.685 646.15ZM398.974 605.572L430.686 609.857L430.687 609.846L430.688 609.836L398.974 605.572ZM400.704 591.447L369.303 585.287L369.302 585.293L400.704 591.447ZM401.083 580.525L432.975 577.901L432.975 577.9L401.083 580.525ZM400.204 568.263L368.449 572.212L368.45 572.224L368.452 572.236L400.204 568.263ZM396.876 545.92L365.808 553.584L365.809 553.59L396.876 545.92ZM388.45 518.756L357.74 527.748L357.74 527.748L388.45 518.756ZM365.525 484.06L343.391 507.171L343.394 507.174L365.525 484.06ZM325.341 456.923L310.23 485.131L310.288 485.162L310.346 485.193L325.341 456.923ZM316.607 452.65L327.664 422.621L327.631 422.609L327.599 422.597L316.607 452.65ZM284.739 441.47L275.419 472.083L275.422 472.084L284.739 441.47ZM252.071 432.908L244.399 463.975L244.402 463.975L252.071 432.908ZM219.216 425.142L227.191 394.152L227.19 394.152L219.216 425.142ZM175.321 413.252L183.989 382.448L183.98 382.445L175.321 413.252ZM140.841 406.775L145.039 375.052L145.03 375.05L145.022 375.049L140.841 406.775ZM126.513 414.861L97.3143 401.767L97.3088 401.78L126.513 414.861ZM123.489 424.67L155.362 427.523L155.374 427.385L155.385 427.247L123.489 424.67ZM123.165 444.72L91.2164 446.53L91.2238 446.661L91.2323 446.792L123.165 444.72ZM126.259 476.279L158.087 472.962L158.085 472.946L158.083 472.93L126.259 476.279ZM132.161 513.986L163.541 507.715L163.538 507.703L132.161 513.986ZM135.357 529.818L104.216 537.185L104.218 537.193L104.22 537.202L135.357 529.818ZM140.064 547.963L171.565 542.336L171.562 542.321L171.56 542.305L140.064 547.963ZM155.204 596.017L184.962 584.25L184.958 584.24L155.204 596.017ZM180.989 637.795L206.117 617.98L206.109 617.97L180.989 637.795ZM211.368 665.916L229.784 639.746L229.775 639.739L211.368 665.916ZM227.294 675.779L241.563 647.136L241.532 647.121L241.5 647.105L227.294 675.779ZM270.876 690.548L263.993 721.8L264.002 721.801L264.01 721.803L270.876 690.548ZM302.943 695.74L305.294 663.826L305.286 663.826L305.277 663.825L302.943 695.74ZM342.435 692.693L347.749 724.249L347.753 724.248L342.435 692.693ZM367.825 683.158L350.39 656.325L350.375 656.335L350.36 656.344L367.825 683.158ZM375.681 677.455L390.232 648.954L372.702 640.004L356.807 651.613L375.681 677.455ZM378.111 678.728L359.077 704.453L359.371 704.67L359.669 704.88L378.111 678.728ZM407.032 693.099L397.672 723.7L397.77 723.73L397.869 723.759L407.032 693.099ZM411.181 692.466L435.572 713.181L453.213 692.409L435.515 671.685L411.181 692.466ZM399.564 686.724L382.965 714.083L382.987 714.096L383.009 714.109L399.564 686.724ZM388.669 681.029L404.984 653.501L404.964 653.489L404.945 653.477L388.669 681.029ZM377.829 673.795L349.442 659.023L336.257 684.363L359.943 700.329L377.829 673.795ZM381.153 667.408L409.743 681.782L409.792 681.686L409.839 681.59L381.153 667.408ZM421.288 655.499C426.081 639.812 428.738 624.272 430.686 609.857L367.262 601.287C365.507 614.278 363.406 625.918 360.081 636.801L421.288 655.499ZM430.688 609.836C431.097 606.796 431.396 603.448 431.571 601.717C431.791 599.555 431.948 598.41 432.107 597.601L369.302 585.293C368.55 589.129 368.159 592.693 367.899 595.255C367.595 598.249 367.483 599.641 367.259 601.308L430.688 609.836ZM432.106 597.607C433.635 589.814 433.389 582.927 432.975 577.901L369.191 583.149C369.379 585.435 369.219 585.712 369.303 585.287L432.106 597.607ZM432.975 577.9C432.956 577.66 432.49 568.55 431.957 564.29L368.452 572.236C368.934 576.093 368.539 575.226 369.191 583.15L432.975 577.9ZM431.96 564.315C431.272 558.786 430.342 547.964 427.943 538.249L365.809 553.59C367.004 558.43 367.277 562.788 368.449 572.212L431.96 564.315ZM427.945 538.255C426.496 532.382 424.721 526.874 423.194 522.257C421.556 517.305 420.289 513.617 419.161 509.763L357.74 527.748C359.275 532.992 361.088 538.294 362.431 542.353C363.885 546.749 364.991 550.273 365.808 553.584L427.945 538.255ZM419.161 509.763C412.86 488.244 399.917 472.687 387.655 460.946L343.394 507.174C351.687 515.114 355.877 521.384 357.74 527.748L419.161 509.763ZM387.658 460.95C372.466 446.4 355.172 436.524 340.336 428.654L310.346 485.193C324.245 492.565 334.926 499.064 343.391 507.171L387.658 460.95ZM340.452 428.716C338.788 427.825 333.351 424.715 327.664 422.621L305.549 482.679C305.425 482.633 305.661 482.711 306.516 483.146C306.93 483.357 307.41 483.611 308.044 483.952C308.363 484.123 308.68 484.295 309.054 484.497C309.412 484.691 309.815 484.909 310.23 485.131L340.452 428.716ZM327.599 422.597C317.685 418.971 305.938 414.473 294.057 410.857L275.422 472.084C285.104 475.03 294.404 478.602 305.615 482.703L327.599 422.597ZM294.06 410.858C282.24 407.259 270.185 404.419 259.741 401.841L244.402 463.975C255.825 466.795 265.684 469.119 275.419 472.083L294.06 410.858ZM259.744 401.841C245.87 398.415 239.18 397.237 227.191 394.152L211.241 456.132C221.049 458.657 236.414 462.002 244.399 463.975L259.744 401.841ZM227.19 394.152C212.824 390.455 198.448 386.516 183.989 382.448L166.654 444.055C181.375 448.198 196.248 452.275 211.242 456.133L227.19 394.152ZM183.98 382.445C170.336 378.61 156.859 376.616 145.039 375.052L136.643 438.499C148.026 440.005 157.682 441.534 166.663 444.058L183.98 382.445ZM145.022 375.049C139.417 374.311 127.713 373.202 116.052 379.847C104.548 386.402 99.5006 396.892 97.3143 401.767L155.711 427.955C156.838 425.443 154.923 431.359 147.739 435.452C140.399 439.635 134.202 438.177 136.66 438.501L145.022 375.049ZM97.3088 401.78C95.9265 404.866 92.3512 412.713 91.5934 422.093L155.385 427.247C155.315 428.125 155.19 428.785 155.101 429.184C155.055 429.387 155.014 429.54 154.987 429.637C154.959 429.734 154.942 429.786 154.942 429.788C154.941 429.789 154.954 429.751 154.985 429.668C155.016 429.584 155.062 429.466 155.127 429.307C155.262 428.974 155.446 428.547 155.717 427.942L97.3088 401.78ZM91.6169 421.816C90.8793 430.055 90.7502 438.297 91.2164 446.53L155.114 442.911C154.822 437.761 154.904 432.636 155.362 427.523L91.6169 421.816ZM91.2323 446.792C91.9712 458.184 93.4126 469.916 94.4347 479.628L158.083 472.93C156.894 461.634 155.726 452.335 155.098 442.649L91.2323 446.792ZM94.4313 479.596C95.8833 493.527 98.1489 507.109 100.784 520.269L163.538 507.703C161.174 495.894 159.275 484.367 158.087 472.962L94.4313 479.596ZM100.782 520.257C101.583 524.266 102.815 531.264 104.216 537.185L166.497 522.451C165.421 517.903 164.849 514.261 163.541 507.715L100.782 520.257ZM104.22 537.202C105.159 541.16 106.373 545.222 107.066 547.651C107.885 550.521 108.319 552.235 108.568 553.62L171.56 542.305C170.707 537.557 169.508 533.238 168.609 530.089C167.585 526.498 166.996 524.554 166.493 522.434L104.22 537.202ZM108.562 553.589C112.172 573.801 119.296 592.246 125.45 607.794L184.958 584.24C178.737 568.523 173.916 555.499 171.565 542.336L108.562 553.589ZM125.446 607.784C133.294 627.629 145.156 644.043 155.87 657.619L206.109 617.97C196.409 605.679 189.287 595.186 184.962 584.25L125.446 607.784ZM155.862 657.609C166.828 671.515 179.666 682.743 192.962 692.092L229.775 639.739C220.305 633.081 212.401 625.949 206.117 617.98L155.862 657.609ZM192.953 692.086C198.294 695.844 205.211 700.55 213.088 704.453L241.5 647.105C238.245 645.492 234.646 643.167 229.784 639.746L192.953 692.086ZM213.025 704.422C229.864 712.81 247.202 718.101 263.993 721.8L277.759 659.297C264.363 656.347 252.357 652.513 241.563 647.136L213.025 704.422ZM264.01 721.803C274.939 724.204 287.396 726.688 300.608 727.655L305.277 663.825C296.809 663.206 288.008 661.549 277.742 659.294L264.01 721.803ZM300.591 727.653C318.044 728.94 334.438 726.49 347.749 724.249L337.12 661.137C324.267 663.302 314.451 664.501 305.294 663.826L300.591 727.653ZM347.753 724.248C360.323 722.13 373.193 717.851 385.291 709.971L350.36 656.344C346.973 658.551 342.766 660.186 337.117 661.138L347.753 724.248ZM385.261 709.991C388.88 707.639 393.554 704.027 394.555 703.296L356.807 651.613C352.534 654.734 352.169 655.169 350.39 656.325L385.261 709.991ZM361.13 705.955C361.838 706.317 362.442 706.602 362.762 706.752C362.844 706.79 362.921 706.826 362.975 706.851C363.036 706.88 363.068 706.895 363.099 706.909C363.161 706.938 363.133 706.926 363.067 706.894C362.951 706.838 362.466 706.603 361.816 706.235C361.145 705.855 360.182 705.27 359.077 704.453L397.144 653.004C394.367 650.95 391.843 649.719 390.912 649.269C390.642 649.138 390.407 649.028 390.258 648.958C389.932 648.805 390.165 648.915 389.95 648.814C389.833 648.759 389.986 648.829 390.232 648.954L361.13 705.955ZM359.669 704.88C371.02 712.884 383.637 719.406 397.672 723.7L416.393 662.499C409.537 660.402 402.983 657.111 396.552 652.577L359.669 704.88ZM397.869 723.759C397.011 723.503 399.008 724.12 400.205 724.423C401.883 724.849 405.206 725.589 409.406 725.551C413.927 725.509 419.064 724.572 424.2 722.061C429.208 719.612 432.924 716.299 435.572 713.181L386.79 671.752C388.745 669.451 391.769 666.677 396.089 664.565C400.536 662.391 404.984 661.589 408.816 661.553C412.327 661.521 414.961 662.139 415.946 662.389C416.451 662.517 417.753 662.905 416.196 662.439L397.869 723.759ZM435.515 671.685C428.23 663.155 419.515 659.972 415.82 658.718C414.914 658.411 414.036 658.137 413.625 658.007C413.371 657.927 413.218 657.878 413.092 657.837C412.973 657.799 412.934 657.785 412.945 657.789C412.953 657.792 413.292 657.908 413.814 658.137C414.348 658.371 415.157 658.758 416.119 659.339L383.009 714.109C386.666 716.32 390.026 717.58 391.978 718.257C392.963 718.599 393.876 718.886 394.365 719.04C394.984 719.235 395.14 719.286 395.262 719.327C395.482 719.401 394.333 719.042 392.75 718.144C390.985 717.143 388.829 715.569 386.847 713.248L435.515 671.685ZM416.162 659.366C412.955 657.42 409.81 655.908 408.119 655.085C405.995 654.053 405.396 653.745 404.984 653.501L372.354 708.557C375.462 710.399 378.562 711.878 380.132 712.642C382.133 713.615 382.676 713.907 382.965 714.083L416.162 659.366ZM404.945 653.477C402.298 651.914 401.039 650.848 395.716 647.26L359.943 700.329C361.979 701.702 367.634 705.769 372.394 708.581L404.945 653.477ZM406.216 688.566C407.068 686.93 408.569 684.118 409.743 681.782L352.564 653.033C351.621 654.909 350.888 656.246 349.442 659.023L406.216 688.566ZM409.839 681.59C412.307 676.597 417.993 666.278 421.286 655.507L360.083 636.793C358.783 641.046 356.89 644.281 352.468 653.226L409.839 681.59Z" fill="#195D5F" mask="url(#path-3-inside-1)"/>
<path d="M396.868 1002.34C392.911 990.263 387.54 978.841 381.712 967.615C379.708 963.759 377.333 960.087 375.571 956.13C374.177 952.994 372.255 950.341 370.106 947.759C367.708 944.884 365.513 941.818 362.997 939.048C358.368 933.939 353.923 928.58 348.751 924.076C342.22 918.396 334.931 913.587 328.149 908.177C317.755 899.892 305.602 896.232 292.739 894.271C277.927 892.013 263.153 893.244 248.395 895.095C245.466 895.451 242.458 895.736 239.61 896.494C229.677 899.158 219.681 901.673 209.888 904.884C200.099 908.095 190.544 911.927 180.942 915.658C171.345 919.384 161.903 923.49 152.274 927.123C139.306 932.021 126.255 936.709 113.181 941.31C103.044 944.88 93.4619 949.642 83.9775 954.595C77.3837 958.041 76.1064 960.912 77.5126 968.185C78.1064 971.244 78.8603 974.474 80.4111 977.115C83.4814 982.423 86.915 987.482 90.7236 992.291C96.7822 999.818 103.29 1007 109.645 1014.28C117.298 1023.07 125.462 1031.36 133.907 1039.39C137.474 1042.79 140.946 1046.29 144.626 1049.56C148.907 1053.35 153.649 1056.65 157.696 1060.66C168.712 1071.58 181.458 1080.22 194.317 1088.66C206.97 1096.98 221.149 1102.05 235.595 1106.36C247.802 1110.01 260.392 1111.43 273.118 1111.43C278.825 1111.44 284.61 1111.31 290.224 1110.44C304.185 1108.32 317.56 1104.02 330.602 1098.57C339.755 1094.74 348.798 1090.7 357.325 1085.59C367.794 1079.33 376.638 1071.07 385.267 1062.54C391.27 1056.6 396.102 1049.9 399.243 1042.06C400.337 1039.32 401.157 1036.49 402.118 1033.66C403.06 1033.52 403.837 1033.31 404.606 1033.33C414.556 1033.35 424.31 1031.98 433.802 1028.88C435.071 1028.45 436.395 1028.17 436.575 1026.22C432.243 1025.11 428.727 1027.77 424.864 1028.03C421.13 1028.28 417.442 1029.21 413.716 1029.5C409.794 1029.81 405.852 1029.71 401.798 1029.79C401.493 1027.53 401.239 1025.39 400.923 1023.26C399.833 1016.23 399.102 1009.17 396.868 1002.34Z" fill="#195D5F"/>
<path d="M564.454 1294.94C554.876 1290.26 544.872 1286.83 534.716 1283.78C531.231 1282.74 527.637 1282.03 524.227 1280.78C521.528 1279.79 518.809 1279.4 516.005 1279.19C512.88 1278.96 509.755 1278.5 506.626 1278.4C500.856 1278.22 495.04 1277.77 489.321 1278.27C482.102 1278.91 474.969 1280.51 467.766 1281.46C456.735 1282.91 447.466 1288.14 438.809 1294.8C428.844 1302.47 421.001 1312.15 413.54 1322.2C412.055 1324.19 410.477 1326.18 409.282 1328.35C405.114 1335.94 400.821 1343.48 397.067 1351.31C393.313 1359.13 390.071 1367.17 386.743 1375.19C383.415 1383.2 380.403 1391.33 376.997 1399.31C372.411 1410.04 367.657 1420.72 362.833 1431.35C359.094 1439.59 356.399 1448.2 353.872 1456.86C352.118 1462.88 353.106 1465.34 358.305 1468.74C360.501 1470.18 362.88 1471.61 365.376 1472.22C370.36 1473.47 375.403 1474.35 380.512 1474.85C388.571 1475.59 396.684 1475.85 404.762 1476.25C414.509 1476.76 424.251 1476.67 433.997 1476.25C438.118 1476.07 442.247 1476.02 446.356 1475.7C451.126 1475.32 455.872 1474.38 460.641 1474.27C473.626 1473.99 486.235 1471.31 498.798 1468.45C511.161 1465.65 522.462 1460.01 533.454 1453.78C542.743 1448.51 550.915 1441.69 558.309 1433.97C561.63 1430.51 564.911 1426.92 567.649 1423.01C574.485 1413.29 579.665 1402.66 583.958 1391.55C586.969 1383.75 589.786 1375.89 591.661 1367.72C593.969 1357.7 594.13 1347.49 594.005 1337.26C593.915 1330.13 592.68 1323.27 589.774 1316.77C588.762 1314.5 587.532 1312.34 586.384 1310.1C586.848 1309.45 587.177 1308.86 587.634 1308.4C593.423 1302.37 598.266 1295.65 601.911 1288.07C602.391 1287.05 602.997 1286.08 601.923 1284.83C598.731 1286.81 598.294 1290.5 596.208 1293C594.192 1295.41 592.606 1298.19 590.614 1300.63C588.524 1303.19 586.173 1305.52 583.868 1308.03C582.329 1306.89 580.891 1305.79 579.423 1304.73C574.552 1301.27 569.868 1297.58 564.454 1294.94Z" fill="#195D5F"/>
<path d="M919.286 1411.9C910.814 1414.4 902.747 1417.88 894.802 1421.69C892.072 1423 889.462 1424.57 886.669 1425.71C884.458 1426.61 882.564 1427.89 880.712 1429.33C878.65 1430.93 876.462 1432.39 874.466 1434.07C870.794 1437.18 866.95 1440.14 863.677 1443.63C859.548 1448.04 856.001 1452.99 852.052 1457.58C846.005 1464.6 843.103 1472.94 841.357 1481.81C839.349 1492.02 839.751 1502.27 840.583 1512.53C840.743 1514.56 840.849 1516.65 841.286 1518.63C842.829 1525.57 844.267 1532.54 846.193 1539.38C848.118 1546.22 850.478 1552.92 852.771 1559.64C855.06 1566.36 857.614 1572.98 859.833 1579.72C862.829 1588.79 865.681 1597.92 868.466 1607.07C870.63 1614.16 873.634 1620.89 876.775 1627.56C878.958 1632.19 880.907 1633.13 885.982 1632.31C888.118 1631.95 890.376 1631.5 892.247 1630.48C896.017 1628.46 899.618 1626.18 903.06 1623.65C908.454 1619.6 913.618 1615.24 918.849 1610.99C925.161 1605.86 931.15 1600.38 936.962 1594.7C939.419 1592.3 941.95 1589.96 944.322 1587.48C947.075 1584.6 949.501 1581.38 952.4 1578.66C960.29 1571.25 966.65 1562.6 972.884 1553.87C979.021 1545.28 982.958 1535.56 986.384 1525.65C989.275 1517.27 990.638 1508.58 991.025 1499.77C991.2 1495.82 991.282 1491.82 990.857 1487.91C989.814 1478.2 987.243 1468.86 983.868 1459.72C981.493 1453.3 978.97 1446.96 975.697 1440.95C971.677 1433.58 966.232 1427.29 960.591 1421.15C956.665 1416.87 952.173 1413.39 946.841 1411.06C944.982 1410.25 943.044 1409.62 941.114 1408.9C941.052 1408.24 940.931 1407.7 940.966 1407.17C941.279 1400.28 940.626 1393.5 938.767 1386.86C938.513 1385.98 938.361 1385.06 937.017 1384.89C936.111 1387.87 937.845 1390.36 937.911 1393.04C937.974 1395.63 938.501 1398.2 938.591 1400.79C938.689 1403.51 938.497 1406.23 938.431 1409.04C936.861 1409.2 935.372 1409.34 933.884 1409.52C928.989 1410.13 924.079 1410.49 919.286 1411.9Z" fill="#195D5F"/>
<path d="M1183.4 1292.64C1182.17 1298.99 1181.72 1305.41 1181.52 1311.86C1181.45 1314.08 1181.59 1316.31 1181.39 1318.51C1181.24 1320.25 1181.42 1321.92 1181.73 1323.6C1182.08 1325.49 1182.29 1327.4 1182.7 1329.27C1183.48 1332.71 1184.11 1336.22 1185.27 1339.53C1186.74 1343.71 1188.74 1347.7 1190.38 1351.82C1192.9 1358.13 1197.31 1362.86 1202.46 1367.01C1208.38 1371.79 1215.14 1375.02 1222.05 1377.97C1223.42 1378.56 1224.8 1379.2 1226.23 1379.59C1231.22 1380.95 1236.21 1382.39 1241.28 1383.47C1246.34 1384.55 1251.46 1385.29 1256.57 1386.1C1261.68 1386.9 1266.81 1387.49 1271.91 1388.35C1278.78 1389.49 1285.63 1390.75 1292.47 1392.06C1297.78 1393.06 1303.13 1393.4 1308.49 1393.63C1312.22 1393.8 1313.48 1392.85 1314.65 1389.28C1315.14 1387.78 1315.6 1386.15 1315.57 1384.59C1315.52 1381.46 1315.26 1378.35 1314.77 1375.25C1313.97 1370.37 1312.88 1365.53 1311.88 1360.69C1310.69 1354.85 1309.15 1349.1 1307.43 1343.4C1306.7 1340.98 1306.04 1338.54 1305.23 1336.16C1304.29 1333.39 1303.02 1330.72 1302.24 1327.92C1300.09 1320.28 1296.63 1313.2 1293.08 1306.19C1289.59 1299.28 1284.63 1293.42 1279.37 1287.82C1274.93 1283.09 1269.77 1279.25 1264.21 1276C1261.71 1274.54 1259.15 1273.12 1256.49 1272.07C1249.86 1269.44 1242.96 1267.93 1235.93 1267.01C1230.99 1266.36 1226.04 1265.84 1221.07 1265.92C1214.96 1266.02 1209.07 1267.42 1203.21 1268.98C1199.13 1270.08 1195.38 1271.8 1192.08 1274.47C1190.93 1275.4 1189.88 1276.45 1188.77 1277.45C1188.33 1277.27 1187.93 1277.17 1187.6 1276.96C1183.25 1274.41 1178.66 1272.53 1173.75 1271.47C1173.09 1271.34 1172.44 1271.12 1171.88 1271.94C1173.5 1273.54 1175.69 1273.26 1177.45 1274.13C1179.14 1274.97 1180.98 1275.51 1182.68 1276.33C1184.47 1277.19 1186.17 1278.24 1187.96 1279.24C1187.54 1280.32 1187.13 1281.33 1186.74 1282.35C1185.5 1285.74 1184.09 1289.05 1183.4 1292.64Z" fill="#195D5F"/>
<path d="M1371.02 1095.5C1373.23 1099.33 1375.87 1102.83 1378.65 1106.25C1379.61 1107.42 1380.68 1108.51 1381.56 1109.73C1382.26 1110.7 1383.1 1111.47 1384.02 1112.2C1385.04 1113.01 1386.01 1113.9 1387.06 1114.67C1389 1116.1 1390.89 1117.61 1392.97 1118.79C1395.6 1120.28 1398.42 1121.42 1401.11 1122.8C1405.24 1124.92 1409.63 1125.35 1414.14 1125.15C1419.34 1124.93 1424.27 1123.52 1429.16 1121.92C1430.13 1121.6 1431.13 1121.3 1432.04 1120.86C1435.23 1119.29 1438.45 1117.77 1441.55 1116.03C1444.65 1114.29 1447.62 1112.36 1450.62 1110.45C1453.62 1108.55 1456.53 1106.53 1459.55 1104.66C1463.61 1102.14 1467.71 1099.68 1471.83 1097.25C1475.01 1095.36 1477.93 1093.11 1480.8 1090.8C1482.8 1089.2 1483.02 1088.14 1482.03 1085.77C1481.61 1084.77 1481.12 1083.73 1480.4 1082.94C1478.98 1081.35 1477.45 1079.86 1475.81 1078.49C1473.22 1076.35 1470.49 1074.35 1467.81 1072.31C1464.58 1069.84 1461.21 1067.58 1457.77 1065.42C1456.31 1064.51 1454.88 1063.55 1453.4 1062.69C1451.67 1061.69 1449.82 1060.89 1448.16 1059.8C1443.63 1056.84 1438.69 1054.77 1433.71 1052.76C1428.81 1050.79 1423.63 1050.02 1418.41 1049.52C1414 1049.1 1409.62 1049.46 1405.29 1050.31C1403.35 1050.69 1401.4 1051.12 1399.55 1051.79C1394.95 1053.43 1390.71 1055.78 1386.67 1058.5C1383.83 1060.4 1381.05 1062.38 1378.51 1064.67C1375.4 1067.49 1372.99 1070.88 1370.66 1074.34C1369.04 1076.75 1367.88 1079.35 1367.37 1082.21C1367.2 1083.21 1367.12 1084.22 1367 1085.25C1366.69 1085.35 1366.44 1085.48 1366.17 1085.52C1362.79 1086.18 1359.57 1087.29 1356.57 1088.98C1356.17 1089.2 1355.74 1089.39 1355.81 1090.06C1357.37 1090.15 1358.37 1089.02 1359.67 1088.67C1360.92 1088.33 1362.1 1087.77 1363.35 1087.43C1364.66 1087.06 1366.01 1086.83 1367.38 1086.54C1367.65 1087.28 1367.88 1087.99 1368.15 1088.69C1369.02 1090.99 1369.77 1093.34 1371.02 1095.5Z" fill="#195D5F"/>
<path d="M82.5333 1960.11C89.3913 1951.98 116.188 1947.92 162.924 1947.92C209.914 1947.92 233.409 1950.33 233.409 1955.16C233.409 1958.71 228.837 1961.25 219.693 1962.78C210.803 1964.05 199.754 1965.19 186.546 1966.21C170.036 1967.48 160.384 1968.24 157.59 1968.49C155.05 1968.49 151.113 1968.75 145.779 1969.25C140.699 1969.51 132.444 1970.4 121.014 1971.92C109.838 1973.45 103.615 1974.33 102.345 1974.59V1978.4C102.345 1995.67 96.6303 2024.75 85.2003 2065.65L97.0113 2066.03C110.219 2066.03 123.935 2065.39 138.159 2064.12C152.637 2062.85 164.067 2062.22 172.449 2062.22C181.085 2062.22 185.403 2063.36 185.403 2065.65C185.403 2078.86 151.367 2085.46 83.2953 2085.46C81.5173 2085.46 80.2473 2085.33 79.4853 2085.08C63.4833 2135.37 55.4823 2165.47 55.4823 2175.38C55.4823 2179.19 56.6253 2182.23 58.9113 2184.52C61.4513 2186.55 64.4993 2187.57 68.0553 2187.57C100.313 2187.57 133.968 2182.49 169.02 2172.33C180.958 2169.03 187.816 2167.38 189.594 2167.38C192.642 2167.38 194.166 2169.66 194.166 2174.23C194.166 2181.09 180.069 2188.84 151.875 2197.47C123.935 2206.11 98.1543 2210.43 74.5323 2210.43C62.8483 2210.43 52.8153 2207.51 44.4333 2201.66C36.0513 2195.57 31.8603 2188.46 31.8603 2180.33C31.8603 2168.64 35.7973 2150.1 43.6713 2124.7C51.7993 2099.05 59.8003 2071.87 67.6743 2043.17C75.8023 2014.47 79.8663 1990.34 79.8663 1970.78C79.8663 1965.7 80.2473 1962.78 81.0093 1962.02C82.0253 1961 82.5333 1960.36 82.5333 1960.11ZM377.243 2023.74C383.847 2023.74 391.086 2028.69 398.96 2038.6C407.088 2048.25 411.152 2058.41 411.152 2069.08C411.152 2085.08 406.961 2105.78 398.579 2131.18C390.451 2156.33 383.212 2175.5 376.862 2188.71C370.766 2201.92 365.051 2208.52 359.717 2208.52C355.653 2208.52 353.621 2206.36 353.621 2202.05C353.621 2197.73 354.637 2192.27 356.669 2185.66C358.955 2178.8 362.257 2169.53 366.575 2157.85C381.561 2117.97 389.054 2088.89 389.054 2070.6C389.054 2064.76 387.276 2059.81 383.72 2055.74C380.418 2051.42 377.497 2049.26 374.957 2049.26C372.671 2049.26 370.512 2049.77 368.48 2050.79C366.448 2051.55 364.162 2052.95 361.622 2054.98C359.336 2057.01 357.05 2059.17 354.764 2061.46C352.732 2063.49 350.065 2066.54 346.763 2070.6C343.715 2074.66 341.048 2078.35 338.762 2081.65C336.476 2084.7 333.301 2089.14 329.237 2094.98C325.427 2100.57 322.252 2105.27 319.712 2109.08C309.552 2125.08 301.932 2136.89 296.852 2144.51C291.772 2151.88 285.549 2161.53 278.183 2173.47C263.705 2196.84 255.577 2208.52 253.799 2208.52C251.005 2208.52 247.957 2206.74 244.655 2203.19C241.607 2199.38 240.083 2196.2 240.083 2193.66C240.083 2191.12 241.099 2186.55 243.131 2179.95C251.513 2153.02 256.847 2134.35 259.133 2123.94C266.753 2091.43 270.563 2063.87 270.563 2041.26C270.563 2029.33 272.849 2023.36 277.421 2023.36C280.977 2023.36 284.533 2025.77 288.089 2030.6C291.645 2035.17 293.423 2041.39 293.423 2049.26C293.423 2057.14 290.629 2073.14 285.041 2097.27C279.707 2121.4 273.738 2142.48 267.134 2160.52C296.598 2109.97 319.458 2074.54 335.714 2054.22C351.97 2033.9 365.813 2023.74 377.243 2023.74ZM572.118 2023.74C574.912 2023.74 577.833 2025.01 580.881 2027.55C584.183 2029.83 585.834 2032.5 585.834 2035.55C585.834 2041.39 580.246 2056.63 569.07 2081.27C557.894 2105.65 546.972 2129.66 536.304 2153.28C525.89 2176.65 518.651 2192.01 514.587 2199.38C510.523 2206.49 506.332 2210.05 502.014 2210.05C489.568 2210.05 476.106 2177.41 461.628 2112.13C454.008 2078.86 450.198 2052.57 450.198 2033.26C450.198 2026.91 451.849 2023.74 455.151 2023.74C458.707 2023.74 462.644 2025.52 466.962 2029.07C471.534 2032.63 474.074 2036.82 474.582 2041.64C477.884 2103.62 487.536 2150.61 503.538 2182.61C508.872 2169.66 517.889 2147.18 530.589 2115.18C543.289 2082.92 552.814 2059.68 559.164 2045.45C565.514 2030.98 569.832 2023.74 572.118 2023.74ZM668.083 1932.68C668.083 1948.43 660.717 1963.54 645.985 1978.02C631.253 1992.24 619.823 1999.35 611.695 1999.35C607.123 1999.35 604.837 1997.96 604.837 1995.16C604.837 1992.37 608.012 1988.43 614.362 1983.35C620.712 1978.27 627.062 1972.18 633.412 1965.06C640.016 1957.7 643.318 1950.84 643.318 1944.49C643.318 1937.89 642.175 1933.31 639.889 1930.77C637.603 1927.98 635.063 1926.2 632.269 1925.44C624.649 1923.15 620.839 1919.47 620.839 1914.39C620.839 1910.58 622.49 1907.41 625.792 1904.87C629.094 1902.07 633.793 1900.67 639.889 1900.67C646.239 1900.67 652.462 1903.6 658.558 1909.44C664.908 1915.28 668.083 1923.03 668.083 1932.68ZM728.081 2215H789.803V1900.67H728.081V2215ZM949.895 2221.1C972.755 2221.1 992.757 2217.35 1009.9 2209.86C1027.05 2202.24 1040.38 2191.31 1049.91 2177.09C1059.56 2162.74 1064.39 2145.47 1064.39 2125.27C1064.39 2106.99 1060.38 2092 1052.38 2080.32C1044.51 2068.51 1033.27 2058.41 1018.67 2050.03C1004.19 2041.52 987.106 2033.2 967.421 2025.07C958.277 2021.26 950.212 2017.77 943.227 2014.59C936.242 2011.42 930.781 2007.67 926.844 2003.35C923.034 1998.91 921.129 1993.13 921.129 1986.02C921.129 1976.37 924.812 1968.11 932.178 1961.25C939.671 1954.4 950.149 1950.97 963.611 1950.97C975.676 1950.97 987.36 1953.44 998.663 1958.4C1010.09 1963.35 1019.87 1969.25 1028 1976.11L1053.72 1927.73C1046.86 1921.88 1038.48 1916.49 1028.57 1911.53C1018.67 1906.58 1008 1902.58 996.567 1899.53C985.137 1896.48 973.707 1894.96 962.277 1894.96C942.084 1894.96 924.368 1899.34 909.128 1908.1C893.888 1916.74 882.013 1928.11 873.504 1942.2C865.122 1956.3 860.931 1971.35 860.931 1987.35C860.931 2000.94 863.916 2012.82 869.885 2022.98C875.854 2033.01 883.728 2041.58 893.507 2048.69C903.286 2055.81 913.827 2061.9 925.13 2066.98C940.497 2073.59 953.514 2079.55 964.182 2084.89C974.977 2090.22 983.169 2096.06 988.757 2102.41C994.345 2108.64 997.139 2116.7 997.139 2126.61C997.139 2139.05 992.821 2148.39 984.185 2154.61C975.676 2160.83 964.817 2163.95 951.609 2163.95C939.036 2163.95 927.352 2161.66 916.557 2157.09C905.762 2152.52 896.11 2147.12 887.601 2140.9C879.219 2134.67 872.171 2129.08 866.456 2124.13L834.833 2175.19C840.167 2180.39 848.104 2186.62 858.645 2193.85C869.313 2201.09 882.267 2207.44 897.507 2212.9C912.874 2218.37 930.337 2221.1 949.895 2221.1ZM1127.68 2215H1302.56V2160.9H1189.41V2084.51H1297.99V2030.41H1189.41V1954.78H1302.56V1900.67H1127.68V2215ZM1378.09 2215H1439.81V2003.54L1575.26 2215H1636.98V1900.67H1575.26V2112.13L1439.81 1900.67H1378.09V2215Z" fill="#195D5F"/>
</svg>
